<svg width="19" height="19" viewBox="0 0 19 19" fill="none" xmlns="http://www.w3.org/2000/svg">
<path d="M9.5 19C14.7464 19 19 14.7468 19 9.5C19 4.25323 14.7464 0 9.5 0C4.25323 0 0 4.25323 0 9.5C0 14.7468 4.25323 19 9.5 19ZM4.84183 9.10417H13.1686L10.3633 6.4311C10.2054 6.28029 10.199 6.02973 10.3499 5.8714C10.4278 5.78986 10.5319 5.74869 10.6368 5.74869C10.7346 5.74869 10.8332 5.7851 10.9096 5.85794L14.4309 9.21342C14.4333 9.21579 14.4356 9.21817 14.4376 9.22015C14.442 9.2245 14.4463 9.22925 14.4507 9.234C14.4942 9.2819 14.5263 9.34048 14.5421 9.4054C14.5449 9.41687 14.5473 9.42835 14.5489 9.43983C14.552 9.45923 14.5536 9.47942 14.5536 9.5C14.5536 9.52058 14.552 9.54077 14.5489 9.56017C14.5473 9.57204 14.5449 9.58352 14.5421 9.5946C14.5263 9.65952 14.4942 9.7181 14.4507 9.766C14.4463 9.77075 14.442 9.7755 14.4376 9.77985C14.4356 9.78223 14.4333 9.78421 14.4309 9.78658L10.9096 13.1421C10.7512 13.2929 10.5007 13.2869 10.3499 13.1286C10.199 12.9703 10.2054 12.7197 10.3633 12.5689L13.1686 9.89583H4.84183C4.62333 9.89583 4.446 9.7185 4.446 9.5C4.446 9.2815 4.62333 9.10417 4.84183 9.10417Z" fill="#E8F55F"/>
</svg>
